<svg width="60" height="60" viewBox="0 0 60 60" fill="none" xmlns="http://www.w3.org/2000/svg">
<circle cx="30" cy="30" r="30" fill="#0F161B"/>
<path d="M36 28H42L39 24L36 28ZM36 32H42L39 36L36 32Z" fill="#C4C4C4"/>
<path d="M19 18H25V42H19C18.7348 42 18.4804 41.8946 18.2929 41.7071C18.1054 41.5196 18 41.2652 18 41V19C18 18.7348 18.1054 18.4804 18.2929 18.2929C18.4804 18.1054 18.7348 18 19 18Z" fill="#606071"/>
<path d="M27 18H33C33.2652 18 33.5196 18.1054 33.7071 18.2929C33.8946 18.4804 34 18.7348 34 19V41C34 41.2652 33.8946 41.5196 33.7071 41.7071C33.5196 41.8946 33.2652 42 33 42H27V18Z" fill="#F9F9F9"/>
</svg>
