<svg width="60" height="60" viewBox="0 0 60 60" fill="none" xmlns="http://www.w3.org/2000/svg">
<circle cx="30" cy="30" r="30" fill="#0F161B"/>
<path d="M41 24V20C41 19.7348 40.8946 19.4804 40.7071 19.2929C40.5196 19.1054 40.2652 19 40 19H20C19.7348 19 19.4804 19.1054 19.2929 19.2929C19.1054 19.4804 19 19.7348 19 20V24H41Z" fill="#F9F9F9"/>
<path d="M19 26V40C19 40.2652 19.1054 40.5196 19.2929 40.7071C19.4804 40.8946 19.7348 41 20 41H25V26H19Z" fill="#C4C4C4"/>
<path d="M27 41H40C40.2652 41 40.5196 40.8946 40.7071 40.7071C40.8946 40.5196 41 40.2652 41 40V26H27V41Z" fill="#606071"/>
</svg>
