<svg width="60" height="60" viewBox="0 0 60 60" fill="none" xmlns="http://www.w3.org/2000/svg">
<circle cx="30" cy="30" r="30" fill="#0F161B"/>
<path d="M39 42H30C29.7348 42 29.4804 41.8946 29.2929 41.7071C29.1054 41.5196 29 41.2652 29 41V39C29 38.7348 29.1054 38.4804 29.2929 38.2929C29.4804 38.1054 29.7348 38 30 38H39C39.2652 38 39.5196 38.1054 39.7071 38.2929C39.8946 38.4804 40 38.7348 40 39V41C40 41.2652 39.8946 41.5196 39.7071 41.7071C39.5196 41.8946 39.2652 42 39 42Z" fill="#C4C4C4"/>
<path d="M39 18H21C20.7348 18 20.4804 18.1054 20.2929 18.2929C20.1054 18.4804 20 18.7348 20 19V21C20 21.2652 20.1054 21.5196 20.2929 21.7071C20.4804 21.8946 20.7348 22 21 22H39C39.2652 22 39.5196 21.8946 39.7071 21.7071C39.8946 21.5196 40 21.2652 40 21V19C40 18.7348 39.8946 18.4804 39.7071 18.2929C39.5196 18.1054 39.2652 18 39 18Z" fill="#F9F9F9"/>
<path d="M39 24H21C20.7348 24 20.4804 24.1054 20.2929 24.2929C20.1054 24.4804 20 24.7348 20 25V35C20 35.2652 20.1054 35.5196 20.2929 35.7071C20.4804 35.8946 20.7348 36 21 36H39C39.2652 36 39.5196 35.8946 39.7071 35.7071C39.8946 35.5196 40 35.2652 40 35V25C40 24.7348 39.8946 24.4804 39.7071 24.2929C39.5196 24.1054 39.2652 24 39 24Z" fill="#606071"/>
</svg>
