<svg width="60" height="60" viewBox="0 0 60 60" fill="none" xmlns="http://www.w3.org/2000/svg">
<circle cx="30" cy="30" r="30" fill="#0F161B"/>
<path d="M23 19H20C19.7348 19 19.4804 19.1054 19.2929 19.2929C19.1054 19.4804 19 19.7348 19 20V40C19 40.2652 19.1054 40.5196 19.2929 40.7071C19.4804 40.8946 19.7348 41 20 41H23V19Z" fill="#C4C4C4"/>
<path d="M25 41H35V19H25V41ZM30 37C29.7348 37 29.4804 36.8946 29.2929 36.7071C29.1054 36.5196 29 36.2652 29 36C29 35.7348 29.1054 35.4804 29.2929 35.2929C29.4804 35.1054 29.7348 35 30 35C30.2652 35 30.5196 35.1054 30.7071 35.2929C30.8946 35.4804 31 35.7348 31 36C31 36.2652 30.8946 36.5196 30.7071 36.7071C30.5196 36.8946 30.2652 37 30 37ZM30 23C30.2652 23 30.5196 23.1054 30.7071 23.2929C30.8946 23.4804 31 23.7348 31 24C31 24.2652 30.8946 24.5196 30.7071 24.7071C30.5196 24.8946 30.2652 25 30 25C29.7348 25 29.4804 24.8946 29.2929 24.7071C29.1054 24.5196 29 24.2652 29 24C29 23.7348 29.1054 23.4804 29.2929 23.2929C29.4804 23.1054 29.7348 23 30 23ZM30 29C30.2652 29 30.5196 29.1054 30.7071 29.2929C30.8946 29.4804 31 29.7348 31 30C31 30.2652 30.8946 30.5196 30.7071 30.7071C30.5196 30.8946 30.2652 31 30 31C29.7348 31 29.4804 30.8946 29.2929 30.7071C29.1054 30.5196 29 30.2652 29 30C29 29.7348 29.1054 29.4804 29.2929 29.2929C29.4804 29.1054 29.7348 29 30 29Z" fill="#606071"/>
<path d="M40 19H37V41H40C40.2652 41 40.5196 40.8946 40.7071 40.7071C40.8946 40.5196 41 40.2652 41 40V20C41 19.7348 40.8946 19.4804 40.7071 19.2929C40.5196 19.1054 40.2652 19 40 19Z" fill="#F9F9F9"/>
</svg>
