<svg width="60" height="60" viewBox="0 0 60 60" fill="none" xmlns="http://www.w3.org/2000/svg">
<circle cx="30" cy="30" r="30" fill="#0F161B"/>
<g clip-path="url(#clip0_402:47)">
<path d="M29.4062 18.1319L18.5862 23.1869C18.5131 23.2205 18.4511 23.2744 18.4077 23.3422C18.3642 23.4099 18.3412 23.4888 18.3413 23.5693C18.3414 23.6498 18.3646 23.7285 18.4082 23.7962C18.4518 23.8639 18.514 23.9176 18.5872 23.9509L29.4922 28.9689C29.8142 29.1169 30.1862 29.1169 30.5082 28.9689L41.4132 23.9509C41.4865 23.9177 41.5487 23.8641 41.5924 23.7964C41.6361 23.7288 41.6595 23.6501 41.6597 23.5696C41.6599 23.4891 41.6369 23.4102 41.5936 23.3424C41.5503 23.2746 41.4884 23.2206 41.4152 23.1869L30.5942 18.1319C30.4083 18.045 30.2055 18 30.0002 18C29.795 18 29.5922 18.045 29.4062 18.1319V18.1319Z" fill="#606071"/>
<path opacity="0.64" d="M41.415 29.6759L39.18 28.6319C39.0199 28.5571 38.8455 28.5181 38.6688 28.5176C38.4922 28.5171 38.3175 28.5551 38.157 28.6289L30.508 32.1489C30.3487 32.2222 30.1754 32.2601 30 32.2601C29.8246 32.2601 29.6513 32.2222 29.492 32.1489L21.842 28.6289C21.6816 28.5552 21.5072 28.5173 21.3307 28.5178C21.1542 28.5183 20.9799 28.5573 20.82 28.6319L18.585 29.6759C18.5119 29.7095 18.45 29.7635 18.4066 29.8313C18.3633 29.8992 18.3404 29.978 18.3406 30.0585C18.3408 30.139 18.3641 30.2178 18.4078 30.2854C18.4515 30.353 18.5137 30.4066 18.587 30.4399L29.492 35.4569C29.6512 35.5306 29.8246 35.5687 30 35.5687C30.1754 35.5687 30.3488 35.5306 30.508 35.4569L41.413 30.4399C41.4863 30.4066 41.5485 30.353 41.5922 30.2854C41.6359 30.2178 41.6592 30.139 41.6594 30.0585C41.6596 29.978 41.6367 29.8992 41.5934 29.8313C41.55 29.7635 41.4881 29.7095 41.415 29.6759Z" fill="#C4C4C4"/>
<path d="M41.4149 36.1081L39.1799 35.0641C39.0198 34.9893 38.8454 34.9503 38.6687 34.9498C38.4921 34.9492 38.3174 34.9872 38.1569 35.0611L30.5079 38.5801C30.3486 38.6533 30.1753 38.6913 29.9999 38.6913C29.8245 38.6913 29.6512 38.6533 29.4919 38.5801L21.8419 35.0601C21.6815 34.9864 21.507 34.9485 21.3306 34.949C21.1541 34.9495 20.9798 34.9884 20.8199 35.0631L18.5849 36.1081C18.512 36.1418 18.4504 36.1958 18.4073 36.2635C18.3642 36.3312 18.3413 36.4099 18.3416 36.4902C18.3418 36.5705 18.365 36.649 18.4085 36.7165C18.452 36.784 18.5139 36.8377 18.5869 36.8711L29.4919 41.8891C29.8139 42.0371 30.1859 42.0371 30.5079 41.8891L41.4129 36.8711C41.4859 36.8377 41.5478 36.784 41.5913 36.7165C41.6348 36.649 41.658 36.5705 41.6582 36.4902C41.6584 36.4099 41.6356 36.3312 41.5925 36.2635C41.5494 36.1958 41.4877 36.1418 41.4149 36.1081Z" fill="#F9F9F9"/>
</g>
<defs>
<clipPath id="clip0_402:47">
<rect width="24" height="24" fill="white" transform="translate(18 18)"/>
</clipPath>
</defs>
</svg>
