<svg width="284" height="284" viewBox="0 0 284 284" fill="none" xmlns="http://www.w3.org/2000/svg">
<path d="M229.817 172.217L178.815 133.031L230.075 88.5819C232.411 86.5569 232.663 83.0195 230.635 80.6837C228.61 78.3478 225.076 78.0929 222.737 80.1207L166.321 129.039C166.307 129.051 166.295 129.062 166.281 129.073L152.499 141.024L82.2602 80.1179C79.9243 78.0901 76.3897 78.345 74.3619 80.6809C72.3369 83.0167 72.5862 86.5541 74.9249 88.5791L126.572 133.364L91.7241 161.125C89.3042 163.052 88.9065 166.576 90.8334 168.996C91.9397 170.385 93.5698 171.107 95.2167 171.107C96.4378 171.107 97.6702 170.707 98.7009 169.889L135.178 140.831L148.83 152.667C149.883 153.58 151.191 154.037 152.499 154.037C153.807 154.037 155.115 153.58 156.168 152.667L170.177 140.52L222.995 181.098C224.011 181.879 225.213 182.257 226.403 182.257C228.081 182.257 229.745 181.507 230.845 180.07C232.73 177.617 232.271 174.102 229.817 172.217Z" fill="#FDFDFD"/>
<path d="M237.242 59.6469H67.7548C58.4954 59.6469 50.9612 67.181 50.9612 76.4404V80.9665C47.8103 78.6503 43.5783 78.0425 39.8084 79.6978C37.3717 80.7705 34.19 82.1625 30.8739 83.6021L30.7842 83.6413C23.7094 86.7082 18.5027 88.9068 15.7215 89.9963C13.6461 90.8086 11.9069 92.0129 10.5541 93.5757C-12.3369 119.984 13.8534 168.239 49.9641 204.35C76.681 231.067 110.038 252.356 136.285 252.353C145.516 252.35 153.868 249.718 160.739 243.766C162.299 242.413 163.503 240.674 164.318 238.596C165.424 235.77 167.598 230.622 170.771 223.314C172.191 220.043 173.561 216.912 174.617 214.509C176.356 210.551 175.611 206.078 172.998 202.891H237.245C246.507 202.891 254.039 195.357 254.039 186.097V76.4461C254.036 67.181 246.502 59.6469 237.242 59.6469ZM160.498 218.847C157.271 226.286 155.045 231.557 153.888 234.509C153.748 234.865 153.571 235.153 153.403 235.299C133.467 252.583 90.2648 228.815 57.882 196.432C25.4963 164.044 1.74555 120.836 19.0153 100.911C19.1637 100.74 19.4522 100.564 19.8079 100.424C22.7852 99.2586 28.0535 97.0347 35.47 93.8166C38.7553 92.391 41.9006 91.0158 44.3429 89.9711L64.6935 124.298L52.0759 147.805C49.7149 152.202 50.5019 157.526 54.0309 161.058L93.2617 200.289C96.7963 203.818 102.123 204.605 106.512 202.238L130.05 189.621L164.346 209.974L164.363 210.002C163.298 212.419 161.918 215.567 160.498 218.847ZM242.836 186.092C242.836 189.175 240.326 191.685 237.242 191.685H155.473L135.761 179.986C132.397 177.992 128.168 177.902 124.72 179.754L101.177 192.366L61.9431 153.098L74.5607 129.594C76.4093 126.146 76.3197 121.917 74.3255 118.55L62.1616 98.0514V76.4404C62.1616 73.3568 64.6711 70.8473 67.7548 70.8473H237.242C240.326 70.8473 242.836 73.3568 242.836 76.4404V186.092Z" fill="#FDFDFD"/>
</svg>
