<svg width="426" height="426" viewBox="0 0 426 426" fill="none" xmlns="http://www.w3.org/2000/svg">
<path d="M425.5 400.5H400.5V425.5H425.5V400.5Z" fill="#DEDEDE"/>
<path d="M375.5 425.5H350.5V400.5H375.5V425.5ZM325.5 425.5H300.5V400.5H325.5V425.5ZM275.5 425.5H250.5V400.5H275.5V425.5ZM225.5 425.5H200.5V400.5H225.5V425.5ZM175.5 425.5H150.5V400.5H175.5V425.5ZM125.5 425.5H100.5V400.5H125.5V425.5ZM75.5 425.5H50.5V400.5H75.5V425.5Z" fill="#DEDEDE"/>
<path d="M25.5 400.5H0.5V425.5H25.5V400.5Z" fill="#DEDEDE"/>
<path d="M25.5 375.5H0.5V350.5H25.5V375.5ZM25.5 325.5H0.5V300.5H25.5V325.5ZM25.5 275.5H0.5V250.5H25.5V275.5ZM25.5 225.5H0.5V200.5H25.5V225.5ZM25.5 175.5H0.5V150.5H25.5V175.5ZM25.5 125.5H0.5V100.5H25.5V125.5ZM25.5 75.5H0.5V50.5H25.5V75.5Z" fill="#DEDEDE"/>
<path d="M25.5 0.5H0.5V25.5H25.5V0.5Z" fill="#DEDEDE"/>
<path d="M375.5 25.5H350.5V0.5H375.5V25.5ZM325.5 25.5H300.5V0.5H325.5V25.5ZM275.5 25.5H250.5V0.5H275.5V25.5ZM225.5 25.5H200.5V0.5H225.5V25.5ZM175.5 25.5H150.5V0.5H175.5V25.5ZM125.5 25.5H100.5V0.5H125.5V25.5ZM75.5 25.5H50.5V0.5H75.5V25.5Z" fill="#DEDEDE"/>
<path d="M425.5 0.5H400.5V25.5H425.5V0.5Z" fill="#DEDEDE"/>
<path d="M425.5 375.5H400.5V350.5H425.5V375.5ZM425.5 325.5H400.5V300.5H425.5V325.5ZM425.5 275.5H400.5V250.5H425.5V275.5ZM425.5 225.5H400.5V200.5H425.5V225.5ZM425.5 175.5H400.5V150.5H425.5V175.5ZM425.5 125.5H400.5V100.5H425.5V125.5ZM425.5 75.5H400.5V50.5H425.5V75.5Z" fill="#DEDEDE"/>
<path d="M373 125.5H53V50H373V125.5ZM78 100.5H348V75H78V100.5Z" fill="#606071"/>
<path d="M373 225.5H53V150H373V225.5ZM78 200.5H348V175H78V200.5Z" fill="#606071"/>
<path d="M213 250H53V311.585H213V250Z" fill="#606071"/>
</svg>
