<svg width="304" height="304" viewBox="0 0 304 304" fill="none" xmlns="http://www.w3.org/2000/svg">
<path d="M229.817 192.217L178.815 153.031L230.075 108.582C232.411 106.557 232.663 103.02 230.635 100.684C228.61 98.3478 225.076 98.0929 222.737 100.121L166.321 149.039C166.307 149.051 166.295 149.062 166.281 149.073L152.499 161.024L82.2602 100.118C79.9243 98.0901 76.3897 98.345 74.3619 100.681C72.3369 103.017 72.5862 106.554 74.9249 108.579L126.572 153.364L91.7241 181.125C89.3042 183.052 88.9065 186.576 90.8334 188.996C91.9397 190.385 93.5698 191.107 95.2167 191.107C96.4378 191.107 97.6702 190.707 98.7009 189.889L135.178 160.831L148.83 172.667C149.883 173.58 151.191 174.037 152.499 174.037C153.807 174.037 155.115 173.58 156.168 172.667L170.177 160.52L222.995 201.098C224.011 201.879 225.213 202.257 226.403 202.257C228.081 202.257 229.745 201.507 230.845 200.07C232.73 197.617 232.271 194.102 229.817 192.217Z" fill="#FDFDFD"/>
<path d="M237.242 79.6469H67.7548C58.4954 79.6469 50.9612 87.181 50.9612 96.4404V100.967C47.8103 98.6503 43.5783 98.0425 39.8084 99.6978C37.3717 100.77 34.19 102.162 30.8739 103.602L30.7842 103.641C23.7094 106.708 18.5027 108.907 15.7215 109.996C13.6461 110.809 11.9069 112.013 10.5541 113.576C-12.3369 139.984 13.8534 188.239 49.9641 224.35C76.681 251.067 110.038 272.356 136.285 272.353C145.516 272.35 153.868 269.718 160.739 263.766C162.299 262.413 163.503 260.674 164.318 258.596C165.424 255.77 167.598 250.622 170.771 243.314C172.191 240.043 173.561 236.912 174.617 234.509C176.356 230.551 175.611 226.078 172.998 222.891H237.245C246.507 222.891 254.039 215.357 254.039 206.097V96.4461C254.036 87.181 246.502 79.6469 237.242 79.6469ZM160.498 238.847C157.271 246.286 155.045 251.557 153.888 254.509C153.748 254.865 153.571 255.153 153.403 255.299C133.467 272.583 90.2648 248.815 57.882 216.432C25.4963 184.044 1.74555 140.836 19.0153 120.911C19.1637 120.74 19.4522 120.564 19.8079 120.424C22.7852 119.259 28.0535 117.035 35.47 113.817C38.7553 112.391 41.9006 111.016 44.3429 109.971L64.6935 144.298L52.0759 167.805C49.7149 172.202 50.5019 177.526 54.0309 181.058L93.2617 220.289C96.7963 223.818 102.123 224.605 106.512 222.238L130.05 209.621L164.346 229.974L164.363 230.002C163.298 232.419 161.918 235.567 160.498 238.847ZM242.836 206.092C242.836 209.175 240.326 211.685 237.242 211.685H155.473L135.761 199.986C132.397 197.992 128.168 197.902 124.72 199.754L101.177 212.366L61.9431 173.098L74.5607 149.594C76.4093 146.146 76.3197 141.917 74.3255 138.55L62.1616 118.051V96.4404C62.1616 93.3568 64.6711 90.8473 67.7548 90.8473H237.242C240.326 90.8473 242.836 93.3568 242.836 96.4404V206.092Z" fill="#FDFDFD"/>
</svg>
