<svg width="772" height="766" viewBox="0 0 772 766" fill="none" xmlns="http://www.w3.org/2000/svg">
<g clip-path="url(#clip0_0:3)">
<path opacity="0.1" d="M199.64 731.077C199.73 731.167 199.83 731.257 199.92 731.347H199.5C199.55 731.257 199.59 731.167 199.64 731.077Z" fill="#606071"/>
<path opacity="0.1" d="M682.19 518.537C682.311 595.569 656.77 670.446 609.6 731.347H364.83C388.82 707.867 403.84 674.257 403.84 636.947C403.84 576.037 363.82 525.017 310.09 511.737L358.05 365.347L286.36 312.737L200.39 401.407C173.794 390.824 144.455 389.286 116.899 397.03C89.3426 404.774 65.0997 421.369 47.91 444.257C34.8254 431.32 18.1164 422.667 0 419.447C42.68 275.387 176.04 170.3 333.93 170.3C526.27 170.3 682.19 326.207 682.19 518.537Z" fill="#606071"/>
<path d="M534.146 390.55C534.146 390.55 520.056 378.355 518.107 352.325C516.598 332.171 534.146 346.339 534.146 346.339C534.146 346.339 533.2 331.816 543.588 333.947C553.976 336.078 558.839 351.593 558.839 351.593" fill="#0F161B"/>
<path d="M597.684 339.264C597.684 339.264 649.346 348.33 625.81 417.582H611.8" fill="#0F161B"/>
<path d="M539.5 489.578C539.729 489.548 542.274 531.768 591.321 528.088C625.277 525.544 637.384 489.519 638.162 489.519C634.501 488.741 628.336 487.609 626.71 486.741C621.363 483.868 614.747 480.879 613.024 470.496C612.031 464.511 613.716 433.896 613.197 427.84L561.076 439.473C561.804 452.261 566.902 481.908 549.036 487.154C546.064 488.022 542.862 488.82 539.5 489.578Z" fill="#EDC0AE"/>
<path opacity="0.52" d="M560.345 475.039C561.162 472.408 561.688 469.695 561.913 466.949C562.486 460.684 562.372 454.374 561.572 448.134C572.166 446.705 582.146 442.333 590.379 435.514C591.347 439.088 596.67 454.706 595.196 458.103C592.41 464.524 579.32 475.039 560.345 475.039Z" fill="#0F161B"/>
<path d="M569.6 464.838C590.24 464.373 615.665 453.055 617.885 425.229L619.885 400.122C622.105 372.296 609.285 348.573 583.091 346.482C556.891 344.392 535.508 365.382 533.291 393.212L532.404 404.327C532.166 408.149 532.188 411.983 532.472 415.802C533.146 425.902 534.211 441.255 540.315 452.002C546.074 462.151 556.41 465.135 569.6 464.838Z" fill="#EDC0AE"/>
<path d="M541.06 410.279C542.848 410.279 544.297 408.83 544.297 407.042C544.297 405.254 542.848 403.805 541.06 403.805C539.272 403.805 537.823 405.254 537.823 407.042C537.823 408.83 539.272 410.279 541.06 410.279Z" fill="#0F161B"/>
<path d="M570.783 410.483C572.571 410.483 574.02 409.034 574.02 407.246C574.02 405.458 572.571 404.009 570.783 404.009C568.995 404.009 567.546 405.458 567.546 407.246C567.546 409.034 568.995 410.483 570.783 410.483Z" fill="#0F161B"/>
<path d="M615.577 433.577C623.539 434.212 630.677 426.209 631.309 418.247C631.941 410.285 625.84 405.38 617.878 404.747L613.35 409.755L608.732 433.034L615.577 433.577Z" fill="#EDC0AE"/>
<path d="M608.508 420.241C608.508 420.241 608.457 380.653 596.671 377.419C588.821 375.265 568.766 385.26 551.118 380.653C543.398 378.638 535.844 380.076 534.841 383.719C534.441 385.162 530.981 363.819 544.296 348.685C554.896 336.638 587.047 335.185 601.285 340.327C640.709 354.552 619.405 406.59 619.405 406.59L616.705 420.056L608.508 420.241Z" fill="#0F161B"/>
<g opacity="0.52">
<path opacity="0.52" d="M557.069 429.791H557.018C554.452 429.591 550.169 428.974 550.318 427.055C550.442 425.464 556.118 408.629 556.768 406.715C556.828 406.556 556.948 406.427 557.101 406.355C557.255 406.282 557.43 406.272 557.591 406.327C557.752 406.381 557.886 406.496 557.964 406.646C558.042 406.797 558.058 406.972 558.01 407.135C555.489 414.59 551.71 426.074 551.625 427.155C551.843 427.628 554.464 428.278 557.125 428.483C557.294 428.496 557.451 428.574 557.564 428.7C557.676 428.827 557.736 428.992 557.729 429.161C557.723 429.33 557.652 429.49 557.53 429.608C557.409 429.726 557.246 429.792 557.077 429.793L557.069 429.791Z" fill="#0F161B"/>
</g>
<path d="M551.328 390.311C548.712 389.393 545.898 389.197 543.18 389.744C541.843 390.005 540.553 390.465 539.353 391.108C538.165 391.739 537.061 392.517 536.068 393.425C535.908 393.568 535.809 393.766 535.792 393.98C535.775 394.194 535.841 394.406 535.976 394.572C536.111 394.738 536.305 394.846 536.517 394.873C536.73 394.9 536.945 394.844 537.117 394.717L537.169 394.677C538.09 393.925 539.103 393.291 540.182 392.791C541.245 392.292 542.377 391.956 543.54 391.797C545.838 391.462 548.184 391.741 550.34 392.605L550.422 392.64C550.723 392.748 551.054 392.737 551.347 392.609C551.64 392.481 551.872 392.245 551.997 391.951C552.122 391.657 552.129 391.326 552.018 391.026C551.906 390.726 551.684 390.481 551.397 390.34C551.373 390.328 551.349 390.318 551.328 390.311Z" fill="#0F161B"/>
<path d="M570.33 392.876C572.486 392.012 574.832 391.733 577.13 392.068C578.293 392.23 579.425 392.567 580.488 393.068C581.567 393.568 582.579 394.202 583.5 394.954L583.551 394.993C583.723 395.125 583.939 395.184 584.154 395.159C584.369 395.134 584.566 395.026 584.703 394.858C584.839 394.69 584.905 394.476 584.886 394.26C584.867 394.044 584.765 393.844 584.601 393.703C583.608 392.795 582.505 392.017 581.317 391.385C580.117 390.742 578.827 390.282 577.49 390.021C574.773 389.473 571.958 389.668 569.342 390.586C569.03 390.698 568.775 390.93 568.633 391.23C568.492 391.53 568.475 391.874 568.587 392.186C568.699 392.498 568.931 392.753 569.231 392.895C569.531 393.036 569.875 393.053 570.187 392.941L570.248 392.917L570.33 392.876Z" fill="#0F161B"/>
<path d="M553.925 436.31C561.391 437.171 568.931 435.521 575.354 431.62C575.577 431.486 575.833 431.418 576.093 431.424C576.353 431.43 576.606 431.51 576.822 431.655C577.038 431.799 577.208 432.002 577.313 432.24C577.418 432.478 577.453 432.741 577.414 432.998C576.699 437.398 574.114 445.428 564.783 446.011C558.758 446.388 554.639 441.574 552.6 438.411C552.457 438.192 552.381 437.936 552.379 437.675C552.377 437.414 552.45 437.157 552.589 436.936C552.729 436.715 552.929 436.538 553.166 436.427C553.402 436.316 553.666 436.276 553.925 436.31V436.31Z" fill="white"/>
<path d="M571.927 350.719C574.323 342.159 571.55 333.9 565.735 332.272C559.919 330.645 553.262 336.265 550.866 344.825C548.471 353.385 551.243 361.644 557.059 363.271C562.875 364.899 569.532 359.279 571.927 350.719Z" fill="#0F161B"/>
<path d="M592.295 517.559C626.387 515.952 627.822 487.016 627.822 487.016C627.822 487.016 644.714 488.107 655.944 489.627C674.328 492.114 686.456 498.348 696.107 507.999C705.085 516.978 710.551 526.691 704.767 588.71C700.579 633.61 703.527 732.389 703.527 732.389H497.776C497.776 732.389 485.438 602.924 483.719 582.71C480.436 544.121 477.771 510.504 485.782 502.492C502.254 486.021 534.582 487.016 548.74 487.018C548.971 487.018 545.868 519.748 592.295 517.559Z" fill="#606071"/>
<path d="M292.018 731.057L440.618 731.792C447.747 731.277 454.581 728.734 460.314 724.464C466.046 720.195 470.439 714.375 472.975 707.692L546.266 545.092C549.795 535.793 549.485 525.474 545.405 516.404C541.325 507.334 533.809 500.256 524.511 496.727C505.146 489.378 486.028 494.318 478.68 513.681L411.341 658.712L289.005 660.7C289.005 660.7 291.1 731.124 292.018 731.057Z" fill="#606071"/>
<path d="M486.627 591.731C486.619 591.598 486.558 591.475 486.458 591.387C486.359 591.299 486.228 591.254 486.095 591.263C485.963 591.271 485.839 591.332 485.751 591.431C485.663 591.531 485.619 591.661 485.627 591.794L489.81 658.622C489.817 658.742 489.868 658.856 489.952 658.942C490.037 659.028 490.15 659.081 490.27 659.09H490.34C490.472 659.082 490.596 659.021 490.684 658.922C490.771 658.823 490.816 658.692 490.808 658.56" fill="#0F161B"/>
<path d="M461.285 663.4L491.419 652.838L487.093 652.538C485.698 652.414 484.403 651.765 483.469 650.722C482.534 649.679 482.031 648.321 482.06 646.921C482.099 646.199 482.286 645.492 482.607 644.844C482.929 644.196 483.38 643.621 483.931 643.153C484.483 642.685 485.124 642.334 485.816 642.123C486.507 641.911 487.235 641.842 487.954 641.921L541.267 647.586L539.882 664.719C539.452 670.041 537.442 675.113 534.11 679.284C530.779 683.456 526.277 686.538 521.182 688.134L498.1 695.328C496.908 695.725 495.615 695.698 494.44 695.251C493.265 694.804 492.281 693.965 491.654 692.876C491.108 691.881 490.895 690.738 491.046 689.613C491.196 688.488 491.702 687.441 492.49 686.624C492.439 686.588 492.396 686.541 492.364 686.488C492.331 686.434 492.31 686.375 492.301 686.313C492.293 686.251 492.297 686.188 492.313 686.128C492.33 686.067 492.358 686.011 492.397 685.962L488.141 687.296C486.814 687.742 485.367 687.667 484.092 687.087C482.818 686.507 481.812 685.464 481.277 684.17C480.839 682.997 480.829 681.708 481.248 680.528C481.667 679.348 482.489 678.355 483.569 677.721C483.519 677.694 483.475 677.659 483.438 677.616L481.689 678.164C480.497 678.561 479.204 678.534 478.029 678.087C476.854 677.64 475.87 676.801 475.243 675.712C474.581 674.504 474.412 673.087 474.772 671.758C475.132 670.429 475.993 669.29 477.174 668.582C477.164 668.546 477.159 668.51 477.158 668.473L464.609 672.873C463.353 673.313 461.973 673.237 460.773 672.66C459.573 672.083 458.651 671.053 458.211 669.796C457.771 668.54 457.847 667.16 458.424 665.96C459.002 664.76 460.032 663.838 461.288 663.398L461.285 663.4Z" fill="#EDC0AE"/>
<path opacity="0.2" d="M477.649 668.964C477.707 668.964 477.765 668.954 477.82 668.934L489.959 664.52C490.084 664.475 490.185 664.382 490.241 664.261C490.297 664.141 490.303 664.004 490.258 663.879C490.213 663.754 490.12 663.653 489.999 663.597C489.879 663.541 489.742 663.535 489.617 663.58L477.478 667.994C477.367 668.034 477.275 668.112 477.216 668.214C477.157 668.316 477.136 668.435 477.156 668.551C477.177 668.667 477.237 668.772 477.327 668.847C477.417 668.923 477.531 668.964 477.649 668.964V668.964Z" fill="#0A0A0A"/>
<path opacity="0.2" d="M483.785 677.79C483.842 677.79 483.898 677.78 483.952 677.761L493.521 674.366C493.646 674.322 493.748 674.23 493.805 674.11C493.863 673.99 493.87 673.853 493.825 673.727C493.781 673.602 493.689 673.5 493.569 673.443C493.45 673.386 493.312 673.379 493.187 673.423L483.618 676.818C483.506 676.857 483.412 676.934 483.352 677.036C483.292 677.138 483.27 677.258 483.29 677.375C483.31 677.491 483.371 677.597 483.462 677.673C483.552 677.749 483.667 677.79 483.785 677.79V677.79Z" fill="#0A0A0A"/>
<path opacity="0.2" d="M492.8 686.745C492.861 686.745 492.921 686.734 492.978 686.712L497.455 685C497.517 684.977 497.574 684.942 497.623 684.897C497.671 684.852 497.711 684.798 497.738 684.738C497.766 684.677 497.781 684.612 497.783 684.546C497.785 684.48 497.774 684.414 497.75 684.352C497.726 684.29 497.691 684.234 497.645 684.186C497.599 684.138 497.545 684.099 497.484 684.073C497.423 684.046 497.358 684.032 497.292 684.031C497.225 684.029 497.16 684.041 497.098 684.066L492.617 685.775C492.508 685.817 492.417 685.895 492.36 685.997C492.302 686.099 492.283 686.218 492.304 686.333C492.325 686.447 492.386 686.551 492.475 686.626C492.565 686.701 492.678 686.742 492.795 686.742L492.8 686.745Z" fill="#0A0A0A"/>
<path d="M518.932 700.7L705.77 731.67C711.53 732.297 717.357 731.581 722.794 729.577C728.23 727.574 733.129 724.338 737.105 720.124C741.081 715.909 744.026 710.831 745.709 705.286C747.393 699.742 747.769 693.884 746.808 688.17L706.966 528.57C706.149 523.714 704.383 519.066 701.77 514.892C699.157 510.718 695.747 507.099 691.735 504.243C683.633 498.475 673.572 496.161 663.764 497.811C653.956 499.461 645.206 504.94 639.437 513.042C633.669 521.144 631.355 531.205 633.005 541.013L663.561 652.249L527.8 633.7L518.932 700.7Z" fill="#606071"/>
<path d="M687.915 655.735C688.041 655.734 688.161 655.686 688.253 655.6C688.345 655.515 688.401 655.397 688.41 655.272C688.42 655.147 688.382 655.023 688.304 654.924C688.225 654.826 688.113 654.76 687.989 654.741L664.7 651.253C664.635 651.242 664.568 651.245 664.504 651.26C664.44 651.276 664.38 651.304 664.327 651.343C664.274 651.382 664.229 651.432 664.196 651.488C664.162 651.545 664.14 651.608 664.131 651.673C664.121 651.738 664.124 651.804 664.14 651.868C664.156 651.932 664.184 651.992 664.224 652.045C664.263 652.098 664.312 652.142 664.368 652.176C664.424 652.21 664.487 652.232 664.552 652.242L687.84 655.729C687.865 655.733 687.89 655.735 687.915 655.735V655.735Z" fill="#0F161B"/>
<path d="M700.569 732.389C700.635 732.393 700.7 732.384 700.763 732.363C700.825 732.342 700.883 732.309 700.932 732.265C700.981 732.222 701.022 732.169 701.051 732.11C701.08 732.051 701.097 731.987 701.101 731.921C701.105 731.855 701.096 731.79 701.075 731.727C701.054 731.665 701.021 731.607 700.977 731.558C700.934 731.509 700.881 731.468 700.822 731.439C700.763 731.41 700.699 731.393 700.633 731.389L519.979 700.316L528.736 634.316L663.561 652.245C663.638 652.254 663.717 652.246 663.791 652.22C663.864 652.194 663.931 652.152 663.986 652.096C664.041 652.04 664.081 651.971 664.104 651.896C664.128 651.822 664.133 651.742 664.12 651.665L649.531 588.724C649.521 588.659 649.498 588.596 649.463 588.54C649.428 588.484 649.383 588.436 649.329 588.397C649.275 588.359 649.214 588.332 649.15 588.318C649.085 588.303 649.019 588.302 648.954 588.314C648.823 588.336 648.707 588.409 648.63 588.517C648.553 588.625 648.522 588.759 648.544 588.89L663.021 651.164L528.36 633.255C528.294 633.246 528.226 633.251 528.162 633.268C528.098 633.286 528.038 633.316 527.985 633.358C527.933 633.399 527.889 633.45 527.857 633.509C527.824 633.567 527.804 633.632 527.797 633.698L518.932 700.698C518.918 700.828 518.955 700.958 519.036 701.06C519.117 701.163 519.235 701.23 519.364 701.247L700.5 732.385C700.523 732.388 700.546 732.389 700.569 732.389V732.389Z" fill="#0F161B"/>
<path d="M3.87299 733.389H770C770.265 733.389 770.52 733.284 770.707 733.096C770.895 732.909 771 732.654 771 732.389C771 732.124 770.895 731.869 770.707 731.682C770.52 731.494 770.265 731.389 770 731.389H3.87299C3.60777 731.389 3.35342 731.494 3.16588 731.682C2.97834 731.869 2.87299 732.124 2.87299 732.389C2.87299 732.654 2.97834 732.909 3.16588 733.096C3.35342 733.284 3.60777 733.389 3.87299 733.389V733.389Z" fill="#0F161B"/>
<path d="M364.83 731.347C343.18 752.567 314.21 765.527 282.37 765.527C250.53 765.527 221.58 752.557 199.92 731.347H364.83Z" fill="white"/>
<path d="M335.305 318.415C326.309 312.676 316.27 308.764 305.762 306.904C295.255 305.045 284.483 305.273 274.064 307.575C263.644 309.878 253.78 314.211 245.035 320.326C236.29 326.441 228.834 334.219 223.095 343.215L223.018 343.336C222.363 344.38 221.415 345.207 220.293 345.716C219.17 346.225 217.923 346.391 216.706 346.195C215.489 346 214.357 345.45 213.451 344.615C212.545 343.78 211.905 342.697 211.61 341.5C206.38 320.6 210.016 294.559 222.519 274.96C246.578 237.247 309.142 209.407 346.833 233.5" fill="#606F71"/>
<path d="M332.523 316.641C341.52 322.38 349.298 329.834 355.414 338.579C361.529 347.324 365.863 357.188 368.166 367.607C370.47 378.027 370.699 388.798 368.839 399.306C366.98 409.814 363.069 419.853 357.33 428.849L357.253 428.969C356.582 430.003 356.231 431.212 356.243 432.444C356.255 433.677 356.63 434.879 357.321 435.899C358.012 436.92 358.988 437.715 360.127 438.185C361.267 438.654 362.52 438.778 363.729 438.54C384.89 434.471 406.968 420.2 419.471 400.601C443.53 362.887 442.406 294.418 404.671 270.393" fill="#606F71"/>
<path d="M534.308 104.6C526.758 141.614 512.426 176.912 492.036 208.713C452.223 271.126 402.675 317.68 363.293 356.1L286.364 307.024C305.407 255.634 325.932 190.566 365.746 128.156C385.991 96.2616 411.962 68.3871 442.346 45.939" fill="#0F161B"/>
<path d="M439.67 196.773C464.652 196.773 484.904 176.521 484.904 151.539C484.904 126.557 464.652 106.305 439.67 106.305C414.688 106.305 394.436 126.557 394.436 151.539C394.436 176.521 414.688 196.773 439.67 196.773Z" fill="#606F71"/>
<path d="M439.67 187.367C459.457 187.367 475.498 171.326 475.498 151.539C475.498 131.752 459.457 115.711 439.67 115.711C419.883 115.711 403.842 131.752 403.842 151.539C403.842 171.326 419.883 187.367 439.67 187.367Z" fill="white"/>
<path d="M364.508 355.232L286.932 305.744L280.477 315.862L358.053 365.35L364.508 355.232Z" fill="#0F161B"/>
<path d="M534.308 104.6L442.341 45.934C492.035 9.272 536.345 0 536.345 0C536.345 0 546.609 44.087 534.308 104.6Z" fill="#606F71"/>
<path d="M352.916 310.411C329.276 347.467 293.864 395 290.016 392.543C286.168 390.086 314.343 337.943 337.982 300.883C361.621 263.823 371.771 255.894 375.623 258.351C379.475 260.808 376.555 273.355 352.916 310.411Z" fill="#606F71"/>
<path d="M382.781 715.4L337.52 576.273C336.725 573.828 335.176 571.698 333.096 570.187C331.016 568.677 328.511 567.863 325.94 567.863H141.548C139.626 567.863 137.731 568.318 136.018 569.191C134.306 570.063 132.824 571.329 131.694 572.884C130.565 574.44 129.819 576.24 129.519 578.139C129.219 580.037 129.372 581.98 129.967 583.808L175.227 722.935C176.022 725.38 177.571 727.51 179.652 729.021C181.732 730.532 184.237 731.346 186.808 731.346H371.2C373.122 731.346 375.017 730.891 376.73 730.018C378.442 729.145 379.924 727.879 381.054 726.324C382.183 724.769 382.929 722.968 383.229 721.069C383.529 719.171 383.376 717.228 382.781 715.4V715.4Z" fill="#0F161B"/>
<path d="M469.22 720.065H345.932C342.817 720.065 340.291 722.59 340.291 725.706C340.291 728.821 342.817 731.346 345.932 731.346H469.22C472.335 731.346 474.861 728.821 474.861 725.706C474.861 722.59 472.335 720.065 469.22 720.065Z" fill="#0F161B"/>
<path d="M256.374 675.73C267.055 675.73 275.713 667.072 275.713 656.391C275.713 645.71 267.055 637.052 256.374 637.052C245.693 637.052 237.035 645.71 237.035 656.391C237.035 667.072 245.693 675.73 256.374 675.73Z" fill="white"/>
</g>
<defs>
<clipPath id="clip0_0:3">
<rect width="771.002" height="765.527" fill="white"/>
</clipPath>
</defs>
</svg>
