<svg width="725" height="479" viewBox="0 0 725 479" fill="none" xmlns="http://www.w3.org/2000/svg">
<path d="M16.8399 0.829956C12.4746 0.830392 8.28815 2.5647 5.20139 5.65145C2.11464 8.73821 0.38032 12.9246 0.379883 17.2899V461.71C0.38032 466.075 2.11464 470.262 5.20139 473.349C8.28815 476.435 12.4746 478.17 16.8399 478.17H708.16C712.525 478.17 716.712 476.435 719.798 473.349C722.885 470.262 724.62 466.075 724.62 461.71V17.2899C724.62 12.9246 722.885 8.73821 719.798 5.65145C716.712 2.5647 712.525 0.830392 708.16 0.829956H16.8399ZM33.2999 33.7499H691.7V106.02L362.5 278.335L33.2999 106.02V33.7499ZM33.2999 143.055L216.932 239.243L33.2999 335.688V143.055ZM691.7 143.055V335.688L508.068 239.243L691.7 143.055ZM252.681 258.018L354.784 311.513C359.513 314.022 365.486 314.022 370.216 311.513L472.319 258.018L691.7 372.98V445.25H33.2999V372.98L252.681 258.018Z" fill="#DEDEDE"/>
</svg>
