<svg width="48" height="32" viewBox="0 0 48 32" fill="none" xmlns="http://www.w3.org/2000/svg">
<path d="M44 32H4C1.794 32 0 30.206 0 28V4C0 1.794 1.794 0 4 0H44C46.206 0 48 1.794 48 4V28C48 30.206 46.206 32 44 32ZM4 2C2.897 2 2 2.897 2 4V28C2 29.103 2.897 30 4 30H44C45.103 30 46 29.103 46 28V4C46 2.897 45.103 2 44 2H4Z" fill="white"/>
<path d="M24 21.191L6.457 9.84C5.993 9.539 5.86 8.921 6.16 8.457C6.46 7.993 7.079 7.861 7.543 8.16L24 18.809L40.457 8.16C40.921 7.861 41.54 7.993 41.84 8.457C42.14 8.921 42.007 9.539 41.543 9.84L24 21.191Z" fill="white"/>
<path d="M6.00099 26C5.67799 26 5.35999 25.844 5.16799 25.555C4.86099 25.095 4.98499 24.475 5.44499 24.168L14.445 18.168C14.905 17.861 15.526 17.985 15.832 18.445C16.139 18.905 16.015 19.525 15.555 19.832L6.55499 25.832C6.38399 25.945 6.19099 26 6.00099 26Z" fill="white"/>
<path d="M41.999 26C41.809 26 41.616 25.945 41.445 25.832L32.445 19.832C31.985 19.525 31.861 18.905 32.168 18.445C32.474 17.985 33.094 17.861 33.555 18.168L42.555 24.168C43.015 24.475 43.139 25.095 42.832 25.555C42.64 25.844 42.322 26 41.999 26Z" fill="white"/>
</svg>
