<svg width="94" height="94" viewBox="0 0 94 94" fill="none" xmlns="http://www.w3.org/2000/svg">
<path d="M87 10V0H45V10H41V0H7V10H0V94H94V10H87ZM11 65.9H37V70H11V65.9ZM37 4V61.9H11V4H37ZM7 14V74H41V20H45V24H49V4H83V24H87V20H90V81.9H4V14H7ZM4 90V85.9H90V90H4Z" fill="#DEDEDE"/>
<path d="M79.8 7.09998H52.2V26.9H79.8V7.09998ZM75.8 22.9H56.2V11.1H75.8V22.9Z" fill="#606071"/>
<path d="M58 36H49V45.1H58V36Z" fill="#606071"/>
<path d="M61 45.1H70V36H61V45.1Z" fill="#606071"/>
<path d="M74 45.1H83V36H74V45.1Z" fill="#606071"/>
<path d="M58 48H49V57.1H58V48Z" fill="#606071"/>
<path d="M61 57.1H70V48H61V57.1Z" fill="#606071"/>
<path d="M74 57.1H83V48H74V57.1Z" fill="#606071"/>
<path d="M58 60H49V69.1H58V60Z" fill="#606071"/>
<path d="M61 69.1H70V60H61V69.1Z" fill="#606071"/>
<path d="M74 69.1H83V60H74V69.1Z" fill="#606071"/>
</svg>
