<svg width="75" height="75" viewBox="0 0 75 75" fill="none" xmlns="http://www.w3.org/2000/svg">
<path d="M74.5332 0H0.466736V17.8781H74.5332V0Z" fill="#EA7E73"/>
<path d="M50.2701 33.2021H0.466736V51.0803H50.2701V33.2021Z" fill="#F6DDCB"/>
<path d="M74.5333 33.2021H55.3781V51.0803H74.5333V33.2021Z" fill="#EFC062"/>
<path d="M74.5333 56.1885H55.3781V74.0666H74.5333V56.1885Z" fill="#EA7E73"/>
<path d="M50.2701 56.1885H31.115V74.0666H50.2701V56.1885Z" fill="#61CCCC"/>
<path d="M26.0069 56.1885H0.466736V74.0666H26.0069V56.1885Z" fill="#EFC062"/>
<path d="M74.5332 22.9861H0.466736V28.0941H74.5332V22.9861Z" fill="#2A60A0"/>
<path d="M51.141 57.1216L49.3991 55.2546L40.6925 63.3802L31.9859 55.2546L30.244 57.1216L38.8204 65.1272L30.244 73.1327L31.9859 74.9997L40.6925 66.8741L49.3991 74.9997L51.141 73.1327L42.5646 65.1272L51.141 57.1216Z" fill="#2A60A0"/>
</svg>
