<svg width="75" height="75" viewBox="0 0 75 75" fill="none" xmlns="http://www.w3.org/2000/svg">
<path d="M22.4978 23.1461H18.356L29.6476 55.0646L35.9689 37.0004L31.0679 23.1461H26.698V20.1047H46.0494V23.1461H41.5178L52.8091 55.0646L56.8679 43.4657C62.1923 28.6052 52.5041 23.9761 52.5041 20.6596C52.5041 17.3431 55.1926 14.6547 58.5089 14.6547C58.6884 14.6547 58.8626 14.6645 59.0333 14.6804C53.4141 9.37578 45.8371 6.1228 37.4997 6.1228C26.6055 6.1228 17.0094 11.6758 11.384 20.1047H22.4974V23.1461H22.4978Z" fill="#00769D"/>
<path d="M6.12299 37.5C6.12299 49.5127 12.8749 59.947 22.7896 65.2196L8.62978 25.1929C7.01677 28.9717 6.12299 33.1314 6.12299 37.5Z" fill="#00769D"/>
<path d="M64.8071 22.0386C65.2559 24.6812 65.1201 27.6514 64.4314 30.6332H64.5562L64.0817 31.9888C63.8006 32.9677 63.4466 33.9691 63.0445 34.953L52.248 65.1995C62.142 59.9205 68.8767 49.4975 68.8767 37.5C68.8767 31.8781 67.3967 26.6023 64.8071 22.0386Z" fill="#00769D"/>
<path d="M27.823 67.3536C30.8712 68.341 34.1227 68.8766 37.5 68.8766C40.7213 68.8766 43.8289 68.3905 46.7543 67.4886L37.5762 41.5442L27.823 67.3536Z" fill="#00769D"/>
<path d="M64.0164 10.9834C56.9336 3.90066 47.5164 0 37.4998 0C27.4832 0 18.0662 3.90066 10.9834 10.9834C3.90066 18.0662 0 27.4832 0 37.5C0 47.5166 3.90066 56.9336 10.9834 64.0164C18.0662 71.0992 27.4834 74.9998 37.5 74.9998C47.5166 74.9998 56.9336 71.0992 64.0166 64.0164C71.0993 56.9336 75 47.5164 75 37.5C74.9998 27.4832 71.0992 18.0662 64.0164 10.9834ZM37.4998 72.3545C18.281 72.3545 2.64534 56.7188 2.64534 37.5C2.64534 18.2812 18.281 2.64534 37.4998 2.64534C56.7187 2.64534 72.3543 18.2812 72.3543 37.5C72.3543 56.7188 56.7188 72.3545 37.4998 72.3545Z" fill="#00769D"/>
</svg>
