<svg width="153" height="75" viewBox="0 0 153 75" fill="none" xmlns="http://www.w3.org/2000/svg">
<path d="M27.0833 68.75C32.8333 68.75 37.5 64.0834 37.5 58.3335V47.917H27.0833C21.3333 47.917 16.6667 52.5836 16.6667 58.3335C16.6667 64.0834 21.3333 68.75 27.0833 68.75Z" fill="#0ACF83"/>
<path d="M16.6667 37.5002C16.6667 31.7502 21.3333 27.0835 27.0833 27.0835H37.5V47.9168H27.0833C21.3333 47.9168 16.6667 43.2502 16.6667 37.5002Z" fill="#A259FF"/>
<path d="M16.6667 16.6667C16.6667 10.9167 21.3333 6.25 27.0833 6.25H37.5V27.0833H27.0833C21.3333 27.0833 16.6667 22.4167 16.6667 16.6667Z" fill="#F24E1E"/>
<path d="M37.5 6.25H47.9167C53.6667 6.25 58.3333 10.9167 58.3333 16.6667C58.3333 22.4167 53.6667 27.0833 47.9167 27.0833H37.5V6.25Z" fill="#FF7262"/>
<path d="M58.3333 37.5002C58.3333 43.2502 53.6667 47.9168 47.9167 47.9168C42.1667 47.9168 37.5 43.2502 37.5 37.5002C37.5 31.7502 42.1667 27.0835 47.9167 27.0835C53.6667 27.0835 58.3333 31.7502 58.3333 37.5002Z" fill="#1ABCFE"/>
<line opacity="0.1" x1="56" y1="38.5" x2="103" y2="38.5" stroke="white" stroke-dasharray="3 3"/>
<path d="M90.2543 41.0994L108.766 48.8722V43.0682L96.7358 38.5682V38.3125L108.766 33.8253V28.0085L90.2543 35.7812V41.0994ZM149.73 41.0994V35.7812L131.218 28.0085V33.8253L143.261 38.3253V38.5554L131.218 43.0682V48.8722L149.73 41.0994Z" fill="white"/>
<path d="M126.876 21.5909H121.545L113.108 52.9375H118.439L126.876 21.5909Z" fill="#FF003D"/>
</svg>
