<svg width="824" height="694" viewBox="0 0 824 694" fill="none" xmlns="http://www.w3.org/2000/svg">
<g clip-path="url(#clip0_501:74)">
<path d="M660.17 0V193.21H823.34V543.94H749.9V693.09L600.77 543.94H311.03V446.34H281.94L97.18 631.12V446.34H-0.0100098V0.01H660.16L660.17 0ZM497.76 163.63C525.94 163.63 548.78 186.47 548.78 214.65C548.78 242.83 525.94 265.68 497.76 265.68C469.58 265.68 446.73 242.83 446.73 214.65C446.73 186.47 469.58 163.63 497.76 163.63ZM330.08 163.63C358.26 163.63 381.11 186.47 381.11 214.65C381.11 242.83 358.26 265.68 330.08 265.68C301.9 265.68 279.05 242.83 279.05 214.65C279.05 186.47 301.9 163.63 330.08 163.63ZM162.41 163.63C190.59 163.63 213.43 186.47 213.43 214.65C213.43 242.83 190.59 265.68 162.41 265.68C134.23 265.68 111.38 242.83 111.38 214.65C111.38 186.47 134.23 163.63 162.41 163.63ZM605.06 55.1H55.09V391.23H152.29V498.06L259.09 391.23H311.03H605.07V193.21V55.1H605.06Z" fill="#DEDEDE"/>
<path d="M660 446H311V544H600.5L750 693.5V544.5H824V193H660V446Z" fill="#606071"/>
</g>
<defs>
<clipPath id="clip0_501:74">
<rect width="824" height="694" fill="white"/>
</clipPath>
</defs>
</svg>
