<svg width="136" height="136" viewBox="0 0 136 136" fill="none" xmlns="http://www.w3.org/2000/svg">
<path d="M97.3534 53.9353C90.1964 22.4287 73.3154 12.0757 71.5021 8.11467C69.5074 5.321 67.3484 0 67.3484 0C67.3371 0.107667 67.3257 0.175667 67.3201 0.277667V0.351333H67.3144C67.3031 0.436333 67.2974 0.493 67.2917 0.572333V0.657333H67.2804C67.2804 0.714 67.2691 0.759333 67.2691 0.804667V0.952H67.2521C67.2464 0.997333 67.2464 1.054 67.2351 1.09367V1.21267H67.2237C67.2237 1.25233 67.2237 1.29767 67.2124 1.33167V1.445H67.2011C67.2011 1.50167 67.1954 1.56967 67.1897 1.62633V1.63767C67.1727 1.734 67.1557 1.83033 67.1387 1.921V1.96633H67.1274C67.1217 1.989 67.1104 2.01167 67.1104 2.03433V2.13067H67.0934V2.25533H67.0651V2.35733H67.0367V2.47633H67.0141V2.584H66.9914V2.68033H66.9574V2.75967H66.9347V2.86167H66.9121V2.941H66.8837V3.01467H66.8667V3.09967H66.8441C66.8384 3.10533 66.8384 3.11667 66.8384 3.12233V3.179H66.8214C66.8157 3.19033 66.8157 3.20167 66.8157 3.213V3.247H66.8044C66.7987 3.264 66.7931 3.29233 66.7931 3.30367C66.7761 3.34333 66.7534 3.383 66.7364 3.42267V3.434C66.7251 3.44533 66.7137 3.46233 66.7081 3.47367V3.519H66.6854V3.56433H66.6571V3.60967H66.6401V3.66633H66.6061V3.74567H66.5834V3.76833H66.5607V3.81367H66.5381V3.876H66.5154V3.92133H66.4814V3.98367H66.4587V4.029H66.4304V4.07433H66.4134V4.131H66.3851V4.17633H66.3624V4.21033H66.3397V4.25567H66.3057V4.30667H66.2831V4.34067H66.2547V4.386H66.2321V4.44833H66.2037V4.471H66.1867V4.51633H66.1527V4.539H66.1301V4.59567H66.1074V4.61833H66.0847V4.66367H66.0564V4.69767H66.0394L66.0281 4.72033V4.743H66.0167C66.0111 4.75433 66.0054 4.75433 66.0054 4.76567V4.77133H65.9997C65.9941 4.78833 65.9884 4.79967 65.9771 4.811V4.828H65.9714C65.9431 4.862 65.9261 4.896 65.9034 4.93V4.93567C65.8921 4.947 65.8637 4.96967 65.8524 4.99233V5.00367H65.8467C65.8411 5.00933 65.8297 5.015 65.8297 5.02067V5.03767H65.8184L65.8014 5.05467V5.06033H65.7957C65.7957 5.066 65.7844 5.07167 65.7787 5.083V5.10567H65.7617L65.7504 5.117V5.12833H65.7391C65.7391 5.13967 65.7277 5.13967 65.7277 5.14533V5.16233H65.7051C65.7051 5.168 65.6994 5.17367 65.6937 5.17933V5.21333H65.6767V5.236H65.6541V5.27H65.6314V5.31533H65.6031V5.27H65.5747V5.29267H65.5521V5.32667H65.5237V5.372H65.4954V5.39467H65.4727V5.42867H65.4501V5.45133H65.4274V5.49667H65.3934V5.51933H65.3707V5.55333H65.3424V5.576H65.3197V5.60433H65.2914V5.661H65.2801V5.68367H65.2461V5.712H65.2234V5.72333H65.2007V5.746H65.1724V5.80267H65.1497V5.82533H65.1214V5.848H65.0987V5.882H65.0704V5.90467H65.0421V5.92733H65.0194V5.95H64.9967V6.00667H64.9741V6.035H64.9401V6.05767H64.9174V6.08033H64.8891V6.11433H64.8664V6.137H64.8381V6.17667H64.8154V6.19933H64.7814V6.23333H64.7701V6.256H64.7474V6.27867H64.7191V6.30133H64.6964V6.33533H64.6681V6.358H64.6511C64.6454 6.36367 64.6454 6.36933 64.6454 6.36933V6.38067H64.6341L64.6114 6.40333C64.6114 6.40333 64.6001 6.41467 64.5887 6.42033V6.45433H64.5661V6.48267H64.5434V6.50533H64.5207V6.528H64.5037L64.4867 6.545V6.562H64.4754L64.4641 6.57333V6.59033H64.4527C64.4244 6.62433 64.4131 6.647 64.3734 6.681C64.3621 6.69233 64.3281 6.72067 64.3054 6.73767C64.2374 6.783 64.1524 6.85667 64.0844 6.919C64.0391 6.94733 63.9937 6.987 63.9597 7.01533V7.021H63.9541C63.8634 7.09467 63.7784 7.16267 63.6764 7.242V7.24767C63.5404 7.361 63.4101 7.46867 63.2571 7.599V7.59333H63.2457C62.9227 7.85967 62.5827 8.16 62.1917 8.49433V8.5H62.1861C61.2284 9.33867 60.0894 10.4153 58.8144 11.7187L58.7294 11.8037L58.7067 11.8263C51.0001 19.7993 38.8564 36.414 37.5757 63.2627C37.4624 65.484 37.4851 67.643 37.6097 69.7453V69.7963C38.2274 80.376 41.5481 89.4087 45.7017 96.747V96.7527C47.3564 99.6767 49.1414 102.334 50.9491 104.714V104.72C57.1937 112.965 63.5687 117.85 65.1951 119.034C67.6941 124.831 67.4617 134.782 67.4617 134.782L71.1111 136C71.1111 136 70.3687 126.361 71.4114 121.709C71.7344 120.252 72.4994 119.011 73.3891 117.957C73.9897 117.532 75.7691 116.252 77.9054 114.302C78.0074 114.195 78.0641 114.098 78.1547 113.996C86.7737 105.961 102.873 86.173 97.3534 53.9353V53.9353Z" fill="#746399"/>
</svg>
