<svg width="137" height="137" viewBox="0 0 137 137" fill="none" xmlns="http://www.w3.org/2000/svg">
<g clip-path="url(#clip0)">
<path d="M68.1818 0C105.835 0 136.364 30.5284 136.364 68.1818C136.364 105.835 105.835 136.364 68.1818 136.364C30.5284 136.364 0 105.835 0 68.1818C0 30.5284 30.5284 0 68.1818 0ZM54.6307 90.8977C55.625 94.5625 55.517 97.9886 54.4943 101.08L54.125 102.102C53.9886 102.449 53.8295 102.784 53.6818 103.102C52.8864 104.75 51.8295 106.284 50.5284 107.705C46.5625 112.017 41.0284 113.653 38.6534 112.278C36.0966 110.79 37.3693 104.693 41.9716 99.8352C46.9205 94.6193 54.017 91.2614 54.017 91.2614V91.2443L54.6307 90.8977ZM110.943 29.1875C107.864 17.0682 87.7784 13.0852 68.7727 19.8409C57.4716 23.858 45.2273 30.1705 36.4261 38.4034C25.9545 48.1818 24.2898 56.7045 24.9773 60.267C27.4034 72.8295 44.6193 81.0454 51.6989 87.142V87.1761C49.6136 88.1989 34.3352 95.8636 30.7557 103.795C26.9205 112.148 31.3523 118.119 34.25 118.881C43.1989 121.358 52.4034 116.835 57.3466 109.511C62.1193 102.347 61.6989 93.142 59.642 88.625C62.4602 87.8579 65.7784 87.517 70.0398 88.0341C81.9773 89.3977 84.3636 96.8977 83.8466 99.9659C83.3352 103.028 80.875 104.818 80.017 105.33C79.1648 105.847 78.9091 106.011 78.9886 106.358C79.0739 106.869 79.5057 106.869 80.1818 106.784C81.1193 106.614 86.4091 104.227 86.6648 98.4261C86.9205 91.0966 79.9261 82.9205 67.4886 83.0852C62.375 83.1761 59.1307 83.6023 56.8352 84.5398C56.6648 84.2841 56.4886 84.1136 56.2386 83.9432C48.5682 75.6761 34.3352 69.8807 34.9318 58.8864C35.1023 54.8807 36.5511 44.3182 62.2045 31.5341C83.2557 21.0455 100.051 23.9489 102.949 30.3409C107.114 39.4545 93.9943 56.4205 72.0909 58.8864C63.7386 59.8239 59.392 56.5909 58.2784 55.392C57.0909 54.1136 56.9205 54.0284 56.4943 54.2898C55.8125 54.6307 56.2386 55.7386 56.4943 56.4205C57.1761 58.125 59.8182 61.108 64.4261 62.642C68.4261 63.9205 78.2329 64.6818 89.9943 60.0852C103.199 54.9773 113.511 40.7386 110.528 28.8068L110.943 29.1875Z" fill="#746399"/>
</g>
<defs>
<clipPath id="clip0">
<rect width="136.364" height="136.364" fill="white"/>
</clipPath>
</defs>
</svg>
