<svg width="124" height="137" viewBox="0 0 124 137" fill="none" xmlns="http://www.w3.org/2000/svg">
<path d="M114.135 72.036C112.909 70.4462 111.579 68.8559 110.157 67.2717C111.134 66.1374 112.065 65.001 112.942 63.8648C122.002 52.1178 124.574 41.4615 120.185 33.8595C115.796 26.2572 105.282 23.1568 90.5778 25.1293C89.0278 25.3373 87.4455 25.6009 85.8379 25.9142C85.2908 24.3148 84.7115 22.7655 84.0984 21.2751C78.4548 7.55566 70.5124 0 61.7343 0C52.9561 0 45.0138 7.55566 39.3704 21.2751C38.7573 22.7655 38.178 24.3148 37.6309 25.9142C36.0233 25.6012 34.4408 25.3373 32.891 25.1293C18.1882 23.157 7.67329 26.2572 3.28409 33.8595C-1.10511 41.4617 1.46715 52.1178 10.5268 63.8648C11.4031 65.001 12.3344 66.1374 13.3121 67.2717C11.8899 68.8559 10.5596 70.4459 9.33336 72.036C0.273703 83.7829 -2.29856 94.4393 2.09064 102.041C5.61719 108.149 13.0959 111.351 23.5264 111.351C26.0776 111.351 28.8075 111.159 31.6973 110.771C33.5584 110.522 35.4659 110.192 37.4091 109.792C38.0203 111.625 38.6736 113.395 39.3704 115.089C45.0138 128.808 52.9561 136.364 61.7343 136.364C70.5124 136.364 78.4548 128.808 84.0982 115.089C84.7949 113.395 85.4482 111.625 86.0595 109.791C88.0026 110.192 89.9101 110.522 91.7713 110.771C94.6618 111.159 97.3902 111.351 99.9422 111.351C110.372 111.351 117.852 108.149 121.378 102.041C125.767 94.439 123.195 83.7829 114.135 72.036ZM98.7937 32.5265C106.097 32.5265 111.259 34.3804 113.265 37.8542C115.89 42.4 113.466 50.1019 106.615 58.985C105.962 59.8314 105.275 60.6784 104.559 61.525C100.553 57.7143 96.0446 53.9856 91.1393 50.4322C90.4617 44.515 89.443 38.8607 88.1108 33.6035C92.0216 32.8817 95.6126 32.5265 98.7937 32.5265ZM72.3411 87.3558C68.7495 89.4292 65.2049 91.2893 61.7367 92.9433C58.2663 91.2888 54.7209 89.4306 51.1275 87.3558C47.1631 85.0669 43.3691 82.6444 39.7899 80.128C39.4894 76.3061 39.327 72.3183 39.327 68.1818C39.327 63.5481 39.5302 59.1001 39.9041 54.8645C43.0959 52.6729 46.4488 50.5571 49.9338 48.5449C53.9394 46.2323 57.8857 44.1885 61.734 42.3968C65.5826 44.1885 69.5288 46.2323 73.5345 48.5449C77.0198 50.5571 80.3724 52.6729 83.5642 54.8645C83.9381 59.1001 84.1413 63.5481 84.1413 68.1818C84.1413 72.3183 83.9789 76.3061 83.6784 80.128C80.0994 82.6444 76.3055 85.0669 72.3411 87.3558ZM82.4597 90.555C81.9243 93.9561 81.275 97.1777 80.5293 100.197C77.5658 99.3358 74.4781 98.2939 71.2936 97.0664C72.9784 96.1718 74.6609 95.2425 76.3361 94.2755C78.4226 93.0706 80.4646 91.8281 82.4597 90.555ZM52.1744 97.0661C48.9893 98.2939 45.9025 99.3348 42.9387 100.196C42.1933 97.1772 41.5439 93.9559 41.0086 90.555C43.0037 91.8281 45.0457 93.0706 47.1322 94.2752C48.8074 95.2425 50.4896 96.1718 52.1744 97.0661ZM31.4344 73.7599C28.9042 71.6639 26.5336 69.5284 24.3461 67.373C26.5629 65.2591 28.9513 63.1683 31.4922 61.1183C31.3902 63.4501 31.3369 65.8066 31.3369 68.1818C31.3369 70.0539 31.3707 71.914 31.4344 73.7599ZM41.2297 44.4535C41.7669 41.27 42.405 38.2524 43.1281 35.4178C45.967 36.2112 48.9254 37.1743 51.9779 38.3091C49.9596 39.3625 47.9442 40.4678 45.939 41.6255C44.3426 42.5471 42.7731 43.4912 41.2297 44.4535ZM71.4904 38.3089C74.5429 37.174 77.5013 36.2107 80.3404 35.4175C81.0635 38.2524 81.7017 41.27 82.2389 44.4535C80.6955 43.4912 79.126 42.5471 77.5298 41.6255C75.524 40.4675 73.509 39.3622 71.4904 38.3089ZM91.9764 61.1183C94.5172 63.1683 96.9057 65.2591 99.1224 67.373C96.935 69.5284 94.5643 71.6639 92.0342 73.7599C92.0978 71.914 92.1316 70.0539 92.1316 68.1818C92.1316 65.8064 92.0784 63.4501 91.9764 61.1183ZM61.7343 7.99006C67.5135 7.99006 73.6525 15.3417 78.0406 27.778C72.7536 29.2638 67.273 31.2339 61.7343 33.6421C56.1956 31.2339 50.7149 29.2641 45.4279 27.778C49.816 15.3417 55.9551 7.99006 61.7343 7.99006ZM10.2035 37.8545C12.2095 34.3801 17.3692 32.5267 24.6748 32.5267C27.8556 32.5267 31.4469 32.882 35.358 33.604C34.0256 38.8612 33.0071 44.5155 32.3295 50.4324C27.4242 53.9859 22.9154 57.7146 18.91 61.5253C18.1941 60.6786 17.5067 59.8317 16.8539 58.9853C10.0029 50.1022 7.57901 42.4003 10.2035 37.8545ZM23.4814 103.374C16.1779 103.373 11.0158 101.52 9.01003 98.0463C6.38556 93.5004 8.80948 85.7986 15.6602 76.9155C16.6363 75.6496 17.6854 74.3824 18.801 73.1173C22.7612 77.0106 27.2561 80.8295 32.1705 84.4762C32.8175 90.6728 33.8333 96.6001 35.1913 102.101C30.8796 102.957 26.9392 103.374 23.4814 103.374ZM61.7343 128.374C55.8429 128.374 49.5785 120.732 45.1754 107.855C50.5517 106.292 56.1186 104.234 61.7343 101.733C67.35 104.234 72.9169 106.292 78.2931 107.855C73.8901 120.732 67.6256 128.374 61.7343 128.374ZM114.459 98.0463C111.503 103.165 101.699 104.763 88.277 102.101C89.6353 96.6001 90.6508 90.6728 91.2978 84.4762C96.2124 80.8295 100.707 77.0106 104.667 73.1173C105.783 74.3824 106.832 75.6499 107.808 76.9155C114.659 85.7986 117.083 93.5004 114.459 98.0463Z" fill="#746399"/>
<path d="M61.7343 80.5264C68.552 80.5264 74.0789 74.9996 74.0789 68.1818C74.0789 61.364 68.552 55.8372 61.7343 55.8372C54.9165 55.8372 49.3896 61.364 49.3896 68.1818C49.3896 74.9996 54.9165 80.5264 61.7343 80.5264Z" fill="#746399"/>
</svg>
