<svg width="137" height="137" viewBox="0 0 137 137" fill="none" xmlns="http://www.w3.org/2000/svg">
<path d="M54.2855 129.439C52.6566 129.439 51.0035 129.001 49.5693 128.175L34.5695 119.301C32.3331 118.037 33.4269 117.6 34.1564 117.356C37.1463 116.311 37.7541 116.093 40.9387 114.269C41.2793 114.075 41.7169 114.147 42.057 114.367L53.5803 121.198C53.9936 121.44 54.5766 121.44 54.9657 121.198L99.8677 95.282C100.281 95.0389 100.548 94.5528 100.548 94.0667V42.2363C100.548 41.7257 100.281 41.2639 99.8438 40.9968L54.966 15.1055C54.5529 14.8624 53.9939 14.8624 53.5805 15.1055L8.72727 41.0208C8.28942 41.2639 8.02229 41.75 8.02229 42.2605V94.0667C8.02229 94.5528 8.28942 95.0389 8.72727 95.2581L21.0288 102.357C27.7143 105.687 31.7983 101.773 31.7983 97.8109V46.6607C31.7983 45.9314 32.3816 45.3724 33.1113 45.3724H38.8C39.505 45.3724 40.1125 45.9314 40.1125 46.6607V97.8351C40.1125 106.733 35.2503 111.838 26.8149 111.838C24.2133 111.838 22.1713 111.838 16.4827 109.018L4.71627 102.235C1.79883 100.558 0 97.4215 0 94.0428V42.2363C0 38.8815 1.79883 35.7212 4.71627 34.0438L49.5693 8.12835C52.4135 6.52395 56.1818 6.52395 59.0018 8.12835L103.904 34.0678C106.821 35.7452 108.62 38.8813 108.62 42.2605V94.0667C108.62 97.4215 106.821 100.558 103.904 102.259L59.0018 128.175C57.5673 129.001 55.9381 129.439 54.2855 129.439ZM90.5332 78.3623C90.5332 68.6621 83.9691 66.0853 70.1852 64.2622C56.2303 62.4144 54.8206 61.4662 54.8206 58.2087C54.8206 55.5105 56.0119 51.9123 66.3439 51.9123C75.558 51.9123 78.9615 53.9058 80.3712 60.1295C80.4929 60.7128 81.0282 61.1504 81.6352 61.1504H87.4706C87.8347 61.1504 88.1751 61.0047 88.4185 60.737C88.6619 60.4699 88.7831 60.105 88.7581 59.7401C87.8592 49.0196 80.7358 44.0357 66.3439 44.0357C53.5323 44.0357 45.8989 49.4327 45.8989 58.5006C45.8989 68.322 53.5078 71.0453 65.7845 72.26C80.4929 73.6948 81.6352 75.8585 81.6352 78.7514C81.6352 83.7598 77.6002 85.8985 68.1432 85.8985C56.2553 85.8985 53.6538 82.9084 52.7786 77.0013C52.6814 76.3693 52.1463 75.9075 51.4903 75.9075H45.6797C44.9505 75.9075 44.3917 76.491 44.3917 77.1955C44.3917 84.7567 48.5002 93.7759 68.1677 93.7759C82.3647 93.7514 90.5332 88.1347 90.5332 78.3623Z" fill="#746399"/>
</svg>
