<svg width="106" height="137" viewBox="0 0 106 137" fill="none" xmlns="http://www.w3.org/2000/svg">
<path d="M-3.05176e-05 96.7583V132.025C-3.05176e-05 134.397 2.86831 136.727 5.79072 136.727H100.009C102.931 136.727 105.799 134.397 105.799 132.025V96.7583H-3.05176e-05ZM48.2468 121.6C48.2468 122.714 48.0423 123.653 47.6355 124.412C47.2265 125.171 46.681 125.783 45.9968 126.243C45.3103 126.704 44.5227 127.026 43.634 127.207C42.7453 127.388 41.826 127.48 40.8855 127.48C40.413 127.48 39.8605 127.431 39.2304 127.334C38.6003 127.238 37.9443 127.09 37.2696 126.885C36.5948 126.681 35.9459 126.45 35.3252 126.194C34.7022 125.938 34.1779 125.649 33.75 125.326L35.3887 122.724C35.6026 122.872 35.9083 123.029 36.3056 123.189C36.7029 123.349 37.1355 123.5 37.6081 123.638C38.0783 123.779 38.5721 123.899 39.087 124.008C39.6018 124.116 40.0838 124.167 40.5329 124.167C41.6661 124.167 42.5736 123.946 43.2484 123.509C43.9232 123.072 44.2805 122.324 44.3252 121.276V103.146H48.2468V121.6ZM66.9075 123.321C66.5548 124.125 66.0564 124.833 65.4122 125.442C64.768 126.051 63.9757 126.54 63.0329 126.904C62.0901 127.268 61.018 127.45 59.8189 127.45C59.304 127.45 58.775 127.421 58.2272 127.37C57.6794 127.318 57.1269 127.224 56.5721 127.097C56.0149 126.968 55.4835 126.791 54.9804 126.566C54.4772 126.34 54.0423 126.067 53.6779 125.745L54.3526 122.98C54.6512 123.152 55.0321 123.319 55.4929 123.479C55.9537 123.638 56.4287 123.789 56.9224 123.928C57.4138 124.069 57.9075 124.179 58.4012 124.266C58.8926 124.351 59.3534 124.395 59.7837 124.395C61.0909 124.395 62.0924 124.09 62.7884 123.479C63.4843 122.867 63.8323 121.962 63.8323 120.763C63.8323 120.034 63.5854 119.413 63.094 118.899C62.6003 118.384 61.9843 117.918 61.246 117.5C60.5078 117.081 59.7084 116.665 58.8503 116.247C57.9921 115.828 57.1881 115.334 56.4404 114.768C55.6904 114.201 55.0674 113.531 54.576 112.76C54.0823 111.989 53.8377 111.025 53.8377 109.868C53.8377 108.819 54.0305 107.886 54.4161 107.073C54.8017 106.259 55.3213 105.566 55.9749 104.999C56.6285 104.432 57.3902 103.997 58.2578 103.696C59.1254 103.395 60.0423 103.247 61.0062 103.247C61.9914 103.247 62.9882 103.339 63.9945 103.52C65.0008 103.701 65.8142 103.997 66.4373 104.404C66.308 104.681 66.1575 104.987 65.9882 105.321C65.8166 105.655 65.6544 105.963 65.5062 106.252C65.3558 106.541 65.2265 106.783 65.1207 106.976C65.0125 107.169 64.949 107.277 64.9279 107.298C64.7986 107.235 64.6551 107.15 64.4929 107.042C64.3307 106.934 64.1003 106.828 63.8017 106.72C63.5008 106.612 63.1034 106.539 62.612 106.494C62.1183 106.45 61.4859 106.461 60.7147 106.527C60.2845 106.572 59.8801 106.692 59.4921 106.896C59.1042 107.101 58.7609 107.35 58.4623 107.651C58.1614 107.952 57.924 108.288 57.7547 108.664C57.583 109.038 57.4984 109.4 57.4984 109.741C57.4984 110.597 57.7429 111.288 58.2366 111.815C58.728 112.341 59.3393 112.8 60.0681 113.197C60.797 113.595 61.587 113.98 62.4475 114.354C63.3033 114.728 64.1026 115.186 64.8432 115.72C65.5838 116.254 66.1975 116.926 66.6912 117.728C67.1826 118.532 67.4294 119.564 67.4294 120.829C67.4388 121.687 67.2602 122.517 66.9075 123.321Z" fill="#746399"/>
<path d="M105.799 92.0563V33.2272C105.799 31.4262 105.583 30.0931 104.506 29.014L77.1465 1.65663C76.326 0.836096 75.1881 0.363525 74.0243 0.363525H5.79075C3.00235 0.363525 0 2.51713 0 7.24284V92.0563H105.799ZM54.0752 75.5986C54.0752 76.8964 53.0243 77.9497 51.7241 77.9497C50.424 77.9497 49.373 76.8964 49.373 75.5986V68.5453C49.373 67.2475 50.424 66.1942 51.7241 66.1942C53.0243 66.1942 54.0752 67.2475 54.0752 68.5453V75.5986ZM72.884 8.3361C72.884 7.25929 74.1842 6.72089 74.9459 7.48265L98.6802 31.217C99.442 31.9787 98.9036 33.2789 97.8268 33.2789H72.884V8.3361ZM70.5329 54.4388V45.0344C70.5329 43.7389 69.4796 42.6833 68.1818 42.6833C66.8817 42.6833 65.8307 41.63 65.8307 40.3322C65.8307 39.0344 66.8817 37.9811 68.1818 37.9811C72.0705 37.9811 75.2351 41.1457 75.2351 45.0344V54.4388C75.2351 57.032 77.344 59.141 79.9373 59.141C81.2375 59.141 82.2884 60.1942 82.2884 61.4921C82.2884 62.7899 81.2375 63.8431 79.9373 63.8431C77.344 63.8431 75.2351 65.9521 75.2351 68.5453V77.9497C75.2351 81.8384 72.0705 85.003 68.1818 85.003C66.8817 85.003 65.8307 83.9497 65.8307 82.6519C65.8307 81.3541 66.8817 80.3008 68.1818 80.3008C69.4796 80.3008 70.5329 79.2452 70.5329 77.9497V68.5453C70.5329 65.724 71.8072 63.2178 73.7821 61.4921C71.8072 59.7663 70.5329 57.2601 70.5329 54.4388ZM51.7241 49.7366C53.6708 49.7366 55.2508 51.3165 55.2508 53.2632C55.2508 55.2099 53.6708 56.7899 51.7241 56.7899C49.7774 56.7899 48.1975 55.2099 48.1975 53.2632C48.1975 51.3165 49.7774 49.7366 51.7241 49.7366ZM23.511 59.141C26.1042 59.141 28.2132 57.032 28.2132 54.4388V45.0344C28.2132 41.1457 31.3777 37.9811 35.2665 37.9811C36.5666 37.9811 37.6176 39.0344 37.6176 40.3322C37.6176 41.63 36.5666 42.6833 35.2665 42.6833C33.9687 42.6833 32.9154 43.7389 32.9154 45.0344V54.4388C32.9154 57.2601 31.6411 59.7663 29.6661 61.4921C31.6411 63.2178 32.9154 65.724 32.9154 68.5453V77.9497C32.9154 79.2452 33.9687 80.3008 35.2665 80.3008C36.5666 80.3008 37.6176 81.3541 37.6176 82.6519C37.6176 83.9497 36.5666 85.003 35.2665 85.003C31.3777 85.003 28.2132 81.8384 28.2132 77.9497V68.5453C28.2132 65.9521 26.1042 63.8431 23.511 63.8431C22.2108 63.8431 21.1599 62.7899 21.1599 61.4921C21.1599 60.1942 22.2108 59.141 23.511 59.141Z" fill="#746399"/>
</svg>
