<svg width="121" height="137" viewBox="0 0 121 137" fill="none" xmlns="http://www.w3.org/2000/svg">
<path d="M2.08489 0.363525C0.831599 0.363525 -0.102214 1.38484 0.00898714 2.63311L10.5749 121.147C10.6861 122.395 11.7648 123.691 12.973 124.026L57.8092 136.475C59.0169 136.811 60.993 136.811 62.2012 136.476L107.174 124.007C108.381 123.672 109.461 122.376 109.573 121.128L120.156 2.63311C120.268 1.38484 119.333 0.363525 118.08 0.363525H2.08489ZM97.6546 27.5443C97.5548 28.6577 97.3821 30.5905 97.2709 31.8388L96.9924 34.9483C96.8803 36.1961 96.7208 37.9808 96.6365 38.9137C96.5526 39.8471 96.4729 40.6104 96.4583 40.6104C96.4442 40.6104 95.4069 40.6104 94.1536 40.6104H62.3611C61.1079 40.6104 60.072 40.6104 60.0583 40.6104C60.0446 40.6104 59.0078 40.6104 57.7545 40.6104H41.0106C39.7573 40.6104 38.8235 41.6317 38.9347 42.88L39.9114 53.7973C40.0226 55.0451 41.1396 56.0669 42.3929 56.0669H57.755C59.0083 56.0669 60.0451 56.0669 60.0587 56.0669C60.0724 56.0669 61.1083 56.0669 62.3616 56.0669H88.7668C90.02 56.0669 91.9597 56.0669 93.0767 56.0669C94.1928 56.0669 95.0241 56.9779 94.9229 58.0913C94.8213 59.2047 94.6476 61.1379 94.5364 62.3857L91.3959 97.5817C91.2838 98.8299 91.1421 100.425 91.081 101.125C91.0186 101.826 89.9799 102.673 88.7722 103.008L62.2787 110.354C61.0709 110.689 60.0674 110.966 60.0487 110.97C60.03 110.974 59.0269 110.703 57.8188 110.368L31.2969 103.009C30.0892 102.674 29.01 101.378 28.8988 100.13L27.1916 80.9681C27.0804 79.7198 28.0152 78.6985 29.2684 78.6985H31.6889C32.9422 78.6985 34.993 78.6985 36.2463 78.6985H39.8558C41.109 78.6985 42.2252 79.7198 42.3373 80.9681L43.0067 88.4691C43.118 89.7174 44.1985 91.0058 45.409 91.3325L57.8147 94.6827C59.0242 95.0095 60.0186 95.277 60.0241 95.277C60.0296 95.277 61.0235 95.009 62.2335 94.6822L74.6616 91.3239C75.8711 90.9971 76.9526 89.7083 77.0647 88.4605L78.4123 73.432C78.5244 72.1837 77.5906 71.1624 76.3373 71.1624H62.3616C61.1083 71.1624 60.0724 71.1624 60.0587 71.1624C60.0451 71.1624 59.0083 71.1624 57.755 71.1624H28.5926C27.3393 71.1624 26.2232 70.1406 26.112 68.8928L22.8051 31.8383C22.6939 30.5901 22.5212 28.6577 22.4214 27.5439C22.3225 26.4305 23.2663 25.5195 24.5196 25.5195H57.755C59.0083 25.5195 60.0451 25.5195 60.0587 25.5195C60.0724 25.5195 61.1083 25.5195 62.3616 25.5195H95.5568C96.8097 25.5195 97.754 26.4305 97.6546 27.5443Z" fill="#746399"/>
</svg>
