<svg width="80" height="80" viewBox="0 0 80 80" fill="none" xmlns="http://www.w3.org/2000/svg">
<rect width="80" height="80" rx="40" fill="#0F161B"/>
<path d="M49 52H40C39.7348 52 39.4804 51.8946 39.2929 51.7071C39.1054 51.5196 39 51.2652 39 51V49C39 48.7348 39.1054 48.4804 39.2929 48.2929C39.4804 48.1054 39.7348 48 40 48H49C49.2652 48 49.5196 48.1054 49.7071 48.2929C49.8946 48.4804 50 48.7348 50 49V51C50 51.2652 49.8946 51.5196 49.7071 51.7071C49.5196 51.8946 49.2652 52 49 52Z" fill="#E5E3E7"/>
<path d="M49 28H31C30.7348 28 30.4804 28.1054 30.2929 28.2929C30.1054 28.4804 30 28.7348 30 29V31C30 31.2652 30.1054 31.5196 30.2929 31.7071C30.4804 31.8946 30.7348 32 31 32H49C49.2652 32 49.5196 31.8946 49.7071 31.7071C49.8946 31.5196 50 31.2652 50 31V29C50 28.7348 49.8946 28.4804 49.7071 28.2929C49.5196 28.1054 49.2652 28 49 28Z" fill="#DEDEDE"/>
<path d="M49 34H31C30.7348 34 30.4804 34.1054 30.2929 34.2929C30.1054 34.4804 30 34.7348 30 35V45C30 45.2652 30.1054 45.5196 30.2929 45.7071C30.4804 45.8946 30.7348 46 31 46H49C49.2652 46 49.5196 45.8946 49.7071 45.7071C49.8946 45.5196 50 45.2652 50 45V35C50 34.7348 49.8946 34.4804 49.7071 34.2929C49.5196 34.1054 49.2652 34 49 34Z" fill="#606071"/>
</svg>
